<?xml version="1.0"?><svg xmlns="http://www.w3.org/2000/svg"  viewBox="0 0 24 24" width="24px" height="24px">    <path d="M 8.5 4 A 0.5 0.5 0 0 0 8.1171875 4.1777344 L 1.3066406 11.279297 A 1 1 0 0 0 1.3027344 11.283203 L 1.2714844 11.316406 A 1 1 0 0 0 1 12 A 1 1 0 0 0 1.2714844 12.683594 A 1 1 0 0 0 1.2988281 12.710938 L 8.1367188 19.84375 A 0.5 0.5 0 0 0 8.1464844 19.853516 A 0.5 0.5 0 0 0 8.5 20 A 0.5 0.5 0 0 0 9 19.5 L 9 15 L 20 15 C 21.105 15 22 14.105 22 13 L 22 12 L 22 11 C 22 9.895 21.105 9 20 9 L 9 9 L 9 4.5 A 0.5 0.5 0 0 0 8.5 4 z"/></svg>